# xmcd
#
# Track frame offsets: 
#        150
#        16010
#        32650
#        45443
#        59580
#        74010
#        89710
#        104095
#        119855
#        134210
#        150948
#        167405
#        185325
#        200380
#        214078
#        228460
#        240713
#        255718
#        269188
#        280395
#        297613
#
# Disc length: 4140 seconds
#
# Revision: 6
# Processed by: cddbd v1.5.2PL0 Copyright (c) Steve Scherf et al.
# Submitted via: ExactAudioCopyFreeDBPlugin 1.0
#
DISCID=51102a15
DTITLE=Various Artist - The Complete Stax-Volt Singles, 1959-1975
DYEAR=1994
DGENRE=Soul
TTITLE0=William Bell - Gettin' What You Want (Losin' What You Got)
TTITLE1=Jacqui Verdell - He's Mine
TTITLE2=Little Sonny - My Woman is Good to Me
TTITLE3=David Porter - I Got You and I'm Glad
TTITLE4=The Emotions - Put a Little Love Away
TTITLE5=Frederick Knight - Suzy
TTITLE6=Mel and Tim - The Same Folks
TTITLE7=The Temprees - You Make the Sunshine
TTITLE8=John Gary Williams - The Whole Damn World is Going Crazy
TTITLE9=Inez Foxx - Circuit's Overload
TTITLE10=Isaac Hayes - Wonderful
TTITLE11=Little Milton - Behind Closed Doors
TTITLE12=Eddie Floyd - Guess Who
TTITLE13=The Sweet Inspirations - Dirty Tricks
TTITLE14=Roebuck "Pops" Staples - Whicha Way Did it Go
TTITLE15=Black Nasty - Talking to the People
TTITLE16=Johnnie Taylor - I've Been Born Again
TTITLE17=The M.G.'s - Neckbone
TTITLE18=Sandra Wright - Wounded Woman
TTITLE19=Hot Sauce - Stop Doggin' Me
TTITLE20=Kim Weston - Goodness Gracious
EXTD=
EXTT0=
EXTT1=
EXTT2=
EXTT3=
EXTT4=
EXTT5=
EXTT6=
EXTT7=
EXTT8=
EXTT9=
EXTT10=
EXTT11=
EXTT12=
EXTT13=
EXTT14=
EXTT15=
EXTT16=
EXTT17=
EXTT18=
EXTT19=
EXTT20=
PLAYORDER=
